<svg id="_x31_px" enable-background="new 0 0 24 24" height="512" viewBox="0 0 24 24" width="512" xmlns="http://www.w3.org/2000/svg"><path d="m19.5 24h-15c-1.379 0-2.5-1.122-2.5-2.5v-4c0-.276.224-.5.5-.5s.5.224.5.5v4c0 .827.673 1.5 1.5 1.5h15c.827 0 1.5-.673 1.5-1.5v-4c0-.276.224-.5.5-.5s.5.224.5.5v4c0 1.378-1.121 2.5-2.5 2.5z"/><path d="m21.5 7.02c-.276 0-.5-.224-.5-.5v-4.02c0-.827-.673-1.5-1.5-1.5h-15c-.827 0-1.5.673-1.5 1.5v4c0 .276-.224.5-.5.5s-.5-.224-.5-.5v-4c0-1.378 1.121-2.5 2.5-2.5h15c1.379 0 2.5 1.122 2.5 2.5v4.02c0 .276-.224.5-.5.5z"/><path d="m3.5 15h-2c-.827 0-1.5-.673-1.5-1.5v-3c0-.827.673-1.5 1.5-1.5h2c.276 0 .5.224.5.5s-.224.5-.5.5h-2c-.275 0-.5.224-.5.5v3c0 .276.225.5.5.5h2c.276 0 .5.224.5.5s-.224.5-.5.5z"/><path d="m8.5 15h-3c-.276 0-.5-.224-.5-.5v-5c0-.276.224-.5.5-.5s.5.224.5.5v4.5h2.5c.276 0 .5.224.5.5s-.224.5-.5.5z"/><path d="m17.25 15h-1.75c-.276 0-.5-.224-.5-.5s.224-.5.5-.5h1.75c.413 0 .75-.336.75-.75s-.337-.75-.75-.75h-.5c-.965 0-1.75-.785-1.75-1.75s.785-1.75 1.75-1.75h1.75c.276 0 .5.224.5.5s-.224.5-.5.5h-1.75c-.413 0-.75.336-.75.75s.337.75.75.75h.5c.965 0 1.75.785 1.75 1.75s-.785 1.75-1.75 1.75z"/><path d="m22.25 15h-1.75c-.276 0-.5-.224-.5-.5s.224-.5.5-.5h1.75c.413 0 .75-.336.75-.75s-.337-.75-.75-.75h-.5c-.965 0-1.75-.785-1.75-1.75s.785-1.75 1.75-1.75h1.75c.276 0 .5.224.5.5s-.224.5-.5.5h-1.75c-.413 0-.75.336-.75.75s.337.75.75.75h.5c.965 0 1.75.785 1.75 1.75s-.785 1.75-1.75 1.75z"/><path d="m13.5 15c-.276 0-.5-.224-.5-.5v-3.5c0-.551-.448-1-1-1s-1 .449-1 1v3.5c0 .276-.224.5-.5.5s-.5-.224-.5-.5v-3.5c0-1.103.897-2 2-2s2 .897 2 2v3.5c0 .276-.224.5-.5.5z"/><path d="m13.25 13h-2.5c-.276 0-.5-.224-.5-.5s.224-.5.5-.5h2.5c.276 0 .5.224.5.5s-.224.5-.5.5z"/></svg>