<?xml version="1.0" encoding="iso-8859-1"?>
<!-- Generator: Adobe Illustrator 16.0.0, SVG Export Plug-In . SVG Version: 6.00 Build 0)  -->
<!DOCTYPE svg PUBLIC "-//W3C//DTD SVG 1.1//EN" "http://www.w3.org/Graphics/SVG/1.1/DTD/svg11.dtd">
<svg version="1.1" id="Capa_1" xmlns="http://www.w3.org/2000/svg" xmlns:xlink="http://www.w3.org/1999/xlink" x="0px" y="0px"
	 width="239.304px" height="239.304px" viewBox="0 0 239.304 239.304" style="enable-background:new 0 0 239.304 239.304;"
	 xml:space="preserve">
<g>
	<g>
		<path d="M57.877,86.855l-21.46,21.464L14.953,86.861c-3.306-3.312-9.078-3.31-12.388-0.005C0.91,88.51,0,90.71,0,93.051
			s0.91,4.542,2.565,6.196l21.46,21.464l-19.26,19.26c-1.653,1.656-2.565,3.856-2.565,6.197s0.912,4.541,2.565,6.194
			c1.655,1.652,3.855,2.566,6.196,2.566s4.538-0.914,6.196-2.566l19.26-19.26l17.058,17.06c3.309,3.309,9.081,3.309,12.388,0
			c1.655-1.653,2.565-3.854,2.565-6.194s-0.91-4.541-2.565-6.198l-17.06-17.059l21.46-21.464c1.655-1.655,2.566-3.855,2.566-6.196
			s-0.912-4.541-2.566-6.196C66.953,83.548,61.185,83.548,57.877,86.855z M65.31,94.289l-26.416,26.419l22.013,22.015
			c0.445,0.445,0.512,0.969,0.512,1.239c0,0.267-0.066,0.79-0.512,1.238c-0.445,0.448-0.967,0.514-1.24,0.514
			c-0.465,0-0.907-0.185-1.241-0.514l-22.013-22.015l-24.215,24.216c-0.445,0.444-0.967,0.513-1.241,0.513s-0.792-0.068-1.241-0.517
			c-0.445-0.445-0.511-0.962-0.511-1.235c0-0.271,0.066-0.794,0.511-1.242l24.215-24.215L7.517,94.285
			c-0.445-0.445-0.512-0.967-0.512-1.237c0-0.27,0.067-0.792,0.512-1.24c0.445-0.449,0.967-0.512,1.241-0.512
			c0.273,0,0.789,0.067,1.237,0.512l26.419,26.419l26.416-26.419c0.445-0.445,0.967-0.512,1.24-0.512
			c0.272,0,0.791,0.067,1.241,0.515c0.445,0.445,0.512,0.963,0.512,1.237C65.822,93.322,65.755,93.844,65.31,94.289z"/>
		<polygon points="104.056,101.189 101.912,106.904 99.939,101.063 96.785,92.112 90.817,92.112 99.097,112.498 95.231,121.492 
			100.865,121.492 113.515,92.112 107.837,92.112 		"/>
		<path d="M125.963,91.693c-6.597,0-10.713,4.873-10.713,10.804c0,5.967,4.03,10.8,10.757,10.8c6.722,0,10.801-4.833,10.801-10.8
			C136.811,96.566,132.564,91.693,125.963,91.693z M126.011,108.586c-3.742,0-5.631-2.939-5.631-6.093
			c0-3.112,1.93-6.136,5.631-6.136c3.442,0,5.626,3.023,5.626,6.136C131.637,105.647,129.748,108.586,126.011,108.586z"/>
		<path d="M156.406,112.876h4.586V92.112h-5.086v10.59c0,3.155-2.146,5.801-5.297,5.801c-3.278,0-5.004-2.397-5.004-5.547V92.112
			h-5.126v10.884c0,6.43,3.614,10.171,8.572,10.171c2.898,0,4.877-1.01,7.02-3.109L156.406,112.876z"/>
		<path d="M183.575,113.461c2.31-0.043,5.547-1.22,6.724-3.655l0.254,3.023h4.832V92.109h-4.914l-0.172,2.855
			c-1.177-2.06-3.825-3.36-6.598-3.36c-6.05-0.041-10.8,3.697-10.8,10.843C172.901,109.723,177.438,113.502,183.575,113.461z
			 M184.167,96.188c8.069,0,8.069,12.566,0,12.566c-3.409,0-6.14-2.351-6.14-6.303C178.027,98.498,180.758,96.188,184.167,96.188z"
			/>
		<path d="M204.857,101.905c0-3.824,2.478-5.257,5.167-5.257c1.684,0,2.649,0.462,3.703,1.345l2.307-4.454
			c-1.13-1.136-3.189-1.976-5.335-1.976c-2.105,0-4.244,0.378-5.839,2.943l-0.38-2.397h-4.746v20.721h5.13v-10.925H204.857z"/>
		<path d="M228.442,113.377c3.152,0,6.729-1.094,8.911-3.36l-3.281-3.236c-1.178,1.22-3.655,1.935-5.547,1.935
			c-3.614,0-5.842-1.85-6.178-4.413h16.177c0.801-8.531-3.531-12.817-10.462-12.817c-6.725,0-11.016,4.538-11.016,10.841
			C217.054,108.964,221.297,113.377,228.442,113.377z M228.234,96.02c2.939,0,5.04,1.345,5.379,4.033h-11.18
			C223.187,97.365,225.459,96.02,228.234,96.02z"/>
		<path d="M163.065,126.172c-2.354,0-4.626,0.716-6.475,3.107v-11.515h-5.126v29.423h5.126v-10.592c0-3.106,2.102-5.674,5.127-5.674
			c2.728,0,4.709,1.599,4.709,5.38v10.886h5.126v-10.927C171.553,130.163,168.945,126.172,163.065,126.172z"/>
		<path d="M185.98,125.834c-6.721,0-11.013,4.541-11.013,10.845c0,6.639,4.244,11.05,11.39,11.05c3.151,0,6.728-1.092,8.911-3.36
			l-3.282-3.234c-1.177,1.222-3.654,1.934-5.544,1.934c-3.617,0-5.845-1.848-6.184-4.411h16.18
			C197.246,130.122,192.914,125.834,185.98,125.834z M180.348,134.41c0.76-2.689,3.028-4.031,5.804-4.031
			c2.94,0,5.038,1.345,5.38,4.031H180.348z"/>
		<path d="M205.535,128.863l-0.377-2.396h-4.75v20.721h5.134v-10.927c0-3.822,2.478-5.257,5.171-5.257
			c1.68,0,2.648,0.463,3.699,1.346l2.31-4.452c-1.133-1.137-3.192-1.979-5.335-1.979
			C209.278,125.919,207.137,126.299,205.535,128.863z"/>
		<path d="M228.751,125.834c-6.729,0-11.017,4.541-11.017,10.845c0,6.639,4.247,11.05,11.39,11.05c3.151,0,6.725-1.092,8.911-3.36
			l-3.278-3.234c-1.181,1.222-3.658,1.934-5.555,1.934c-3.61,0-5.835-1.848-6.173-4.411h16.18
			C240.01,130.122,235.684,125.834,228.751,125.834z M223.118,134.41c0.753-2.689,3.024-4.031,5.797-4.031
			c2.943,0,5.044,1.345,5.38,4.031H223.118z"/>
	</g>
</g>
<g>
</g>
<g>
</g>
<g>
</g>
<g>
</g>
<g>
</g>
<g>
</g>
<g>
</g>
<g>
</g>
<g>
</g>
<g>
</g>
<g>
</g>
<g>
</g>
<g>
</g>
<g>
</g>
<g>
</g>
</svg>
